{"title":"Felon (2008) [1337x] By {Noir}","uid":4298521,"size":828775013,"categoryP":"video","categoryS":"movies","magnet":"?xt=urn:btih:ba17acbc10b61b711ed6974d05c9145affa65d9b&amp;dn=Felon+%282008%29+%5B1337x%5D+By+%7BNoir%7D&amp;tr=udp%3A%2F%2Ftracker.openbittorrent.com%3A80&amp;tr=udp%3A%2F%2Fopen.demonii.com%3A1337&amp;tr=udp%3A%2F%2Ftracker.coppersurfer.tk%3A6969&amp;tr=udp%3A%2F%2Fexodus.desync.com%3A6969","seeders":0,"leechers":0,"uploader":"INoirI","files":4,"time":1216172277,"description":"[IMG]http://i220.photobucket.com/albums/dd94/ItheplagueI/516vwEmYxwL__SS500_.jpg[/IMG]\n\n               Screenshots\n\n[IMG]http://i220.photobucket.com/albums/dd94/ItheplagueI/Felon2_0000.jpg[/IMG]\n\n[IMG]http://i220.photobucket.com/albums/dd94/ItheplagueI/Felon2_0001.jpg[/IMG]\n\n[IMG]http://i220.photobucket.com/albums/dd94/ItheplagueI/Felon2_0002.jpg[/IMG]\n\n[IMG]http://i220.photobucket.com/albums/dd94/ItheplagueI/2-6.jpg[/IMG]\n\n  _____________________________________________________________________________\n                 ??????\n                 ???????         ????\n                 ????????      ??????\n                 ?????????     ???????????\n                   ????????    ???????????? ?????????????\n                   ?????????   ???????????????????????????\n                   ??????????  ???????????????????????????\n                   ??????????? ?????????????????????????????\n                   ?????????????????????????????????????????\n                   ?????????????????????????????????????????\n                   ?????????????????????????????????????????\n                   ?????????????????????????????????????????\n                   ?????????????????????????????????????????\n                  ???????? ?????????????????????????????????\n                 ?????????  ????????????????????????????\n                 ?????????   ?????????????????  ????????\n                 ?????????    ????????????????  ????????\n                 ?????????    ??????????????    ????????\n                 ?????????     ?????\n  _____________________________________________________________________________\n\n\n\n*******************************************************************************\n                              Felon (2008)\n*******************************************************************************\n\n-------------------------------------------------------------------------------\n                              General Information\n-------------------------------------------------------------------------------\nType                             : Movie\nFormat                           : AVI\nFormat/Info                      : Audio Video Interleave\nFile size                        : 790 MiB\nDuration                         : 1h 39mn\nGenre                            : Drama\nIMDB Link                        : http://www.imdb.com/title/tt1117385/\nRating                           : Awaiting Votes\nSource                           : Dvd Screener NTSC ( Watermarks like usual Screeners )\n\nVideo\nFormat                           : MPEG-4 Visual\nFormat profile                   : Streaming Video@L1\nFormat settings, BVOP            : Yes\nFormat settings, QPel            : No\nFormat settings, GMC             : No warppoints\nFormat settings, Matrix          : Default\nMuxing mode                      : Packet Bitstream\nCodec ID                         : XVID\nCodec ID/Hint                    : XviD\nDuration                         : 1h 39mn\nBit rate                         : 977 Kbps\nWidth                            : 608 pixels\nHeight                           : 320 pixels\nDisplay aspect ratio             : 1.900\nFrame rate                       : 23.976 fps\nResolution                       : 8 bits\nColorimetry                      : 4:2:0\nScan type                        : Progressive\nBits/(Pixel*Frame)               : 0.210\nStream size                      : 693 MiB (88%)\n\nAudio\nFormat                           : MPEG Audio\nFormat version                   : Version 1\nFormat profile                   : Layer 3\nCodec ID                         : 55\nCodec ID/Hint                    : MP3\nDuration                         : 1h 39mn\nBit rate mode                    : Constant\nBit rate                         : 128 Kbps\nMinimum bit rate                 : 128 Kbps\nChannel(s)                       : 2 channels\nSampling rate                    : 48.0 KHz\nResolution                       : 16 bits\nStream size                      : 90.7 MiB (11%)\nAlignment                        : Aligned on interleaves\nInterleave, duration             : 42 ms (1.00 video frame)\nInterleave, preload duration     : 504 ms\nWriting library                  : LAME3.97 \nEncoding settings                : CBR\n-------------------------------------------------------------------------------\n                               Description\n-------------------------------------------------------------------------------\nA loving family man with a promising future loses everything when he\naccidentally kills the burglar who broke into his home. Covicted of\ninvoluntary manslaughter, he is sentence to spend the next three years\ninside a maximum security facility where the rules of society no longer\napply.\n -------------------------------------------------------------------------------\n                               Post Information\n-------------------------------------------------------------------------------\nPosted by............: Noir\nPosted on............: 7/15/2008\n\n\n[IMG]http://i220.photobucket.com/albums/dd94/ItheplagueI/NoirBackdrop1.png[/IMG]\n\n\n[img]http://www.ukb-kvcd.com/k-stats/ba17acbc10b61b711ed6974d05c9145affa65d9b.png[/img]\n\n[img]http://1337x.org/torrentimg-3664.png[/img]","torrent":{"xt":"urn:btih:ba17acbc10b61b711ed6974d05c9145affa65d9b","amp;dn":"Felon+%282008%29+%5B1337x%5D+By+%7BNoir%7D","amp;tr":["udp%3A%2F%2Ftracker.openbittorrent.com%3A80","udp%3A%2F%2Fopen.demonii.com%3A1337","udp%3A%2F%2Ftracker.coppersurfer.tk%3A6969","udp%3A%2F%2Fexodus.desync.com%3A6969"],"infoHash":"ba17acbc10b61b711ed6974d05c9145affa65d9b","infoHashBuffer":{"type":"Buffer","data":[186,23,172,188,16,182,27,113,30,214,151,77,5,201,20,90,255,166,93,155]},"announce":[],"urlList":[]}}